<?xml version="1.0" encoding="utf-8"?>
<!-- Svg Vector Icons : http://www.onlinewebfonts.com/icon -->
<!DOCTYPE svg PUBLIC "-//W3C//DTD SVG 1.1//EN" "http://www.w3.org/Graphics/SVG/1.1/DTD/svg11.dtd">
<svg version="1.1" xmlns="http://www.w3.org/2000/svg" xmlns:xlink="http://www.w3.org/1999/xlink" x="0px" y="0px" viewBox="0 0 256 256" enable-background="new 0 0 256 256" xml:space="preserve">
<metadata> Svg Vector Icons : http://www.onlinewebfonts.com/icon </metadata>
<g><g><path fill="#000000" d="M114,103.9c0,7.9-6.4,14.4-14.4,14.4H24.4c-7.9,0-14.4-6.4-14.4-14.4V28.6c0-7.9,6.4-14.4,14.4-14.4h75.3c7.9,0,14.4,6.4,14.4,14.4V103.9z"/><path fill="#000000" d="M246,103.9c0,7.9-6.4,14.4-14.4,14.4h-75.3c-7.9,0-14.4-6.4-14.4-14.4V28.6c0-7.9,6.4-14.4,14.4-14.4h75.3c7.9,0,14.4,6.4,14.4,14.4V103.9L246,103.9z"/><path fill="#000000" d="M114.9,227.4c0,7.9-6.4,14.4-14.4,14.4H25.2c-7.9,0-14.4-6.4-14.4-14.4v-75.3c0-7.9,6.4-14.4,14.4-14.4h75.3c7.9,0,14.4,6.4,14.4,14.4V227.4z"/><path fill="#000000" d="M246,227.4c0,7.9-6.4,14.4-14.4,14.4h-75.3c-7.9,0-14.4-6.4-14.4-14.4v-75.3c0-7.9,6.4-14.4,14.4-14.4h75.3c7.9,0,14.4,6.4,14.4,14.4V227.4L246,227.4z"/></g></g>
</svg>